<?xml version="1.0" encoding="UTF-8"?>
<!DOCTYPE svg PUBLIC "-//W3C//DTD SVG 1.1//EN" "http://www.w3.org/Graphics/SVG/1.1/DTD/svg11.dtd">
<!-- Creator: CorelDRAW 2021 (64-Bit) -->
<svg xmlns="http://www.w3.org/2000/svg" xml:space="preserve" width="240.281mm" height="42.5066mm" version="1.1" style="shape-rendering:geometricPrecision; text-rendering:geometricPrecision; image-rendering:optimizeQuality; fill-rule:evenodd; clip-rule:evenodd"
viewBox="0 0 11514.8 2037.01"
 xmlns:xlink="http://www.w3.org/1999/xlink"
 xmlns:xodm="http://www.corel.com/coreldraw/odm/2003">
 <defs>
  <style type="text/css">
   <![CDATA[
    .fil1 {fill:#CC095D}
    .fil0 {fill:#CC095D;fill-rule:nonzero}
   ]]>
  </style>
 </defs>
 <g id="Layer_x0020_1">
  <metadata id="CorelCorpID_0Corel-Layer"/>
  <path class="fil0" d="M2967.56 1155.5l-139.98 145.93 0 263.58 -239.74 0 0 -1042.39 239.74 0 0 486.94 461.63 -486.94 268.04 0 -431.85 464.6 457.16 577.78 -281.44 0 -333.57 -409.51zm901.01 -403.56c124.09,0 219.39,29.54 285.91,88.61 66.52,59.07 99.77,148.18 99.77,267.3l0 457.16 -217.41 0 0 -99.77c-43.68,74.46 -125.09,111.69 -244.22,111.69 -61.55,0 -114.91,-10.42 -160.08,-31.27 -45.17,-20.85 -79.68,-49.64 -103.5,-86.37 -23.82,-36.73 -35.74,-78.43 -35.74,-125.09 0,-74.46 28.05,-133.03 84.14,-175.72 56.09,-42.69 142.71,-64.03 259.85,-64.03l184.65 0c0,-50.63 -15.39,-89.6 -46.16,-116.9 -30.77,-27.3 -76.93,-40.95 -138.49,-40.95 -42.69,0 -84.64,6.7 -125.83,20.1 -41.19,13.39 -76.2,31.52 -104.98,54.35l-83.4 -162.31c43.69,-30.78 96.06,-54.6 157.11,-71.48 61.05,-16.88 123.85,-25.32 188.38,-25.32zm-17.87 668.62c39.71,0 74.96,-9.19 105.74,-27.55 30.76,-18.35 52.61,-45.42 65.51,-81.15l0 -81.9 -159.34 0c-95.29,0 -142.95,31.27 -142.95,93.82 0,29.78 11.67,53.36 34.99,70.73 23.32,17.36 55.35,26.06 96.05,26.06zm914.63 -668.62c99.28,0 179.47,29.81 240.49,89.35 61.03,59.54 91.58,147.97 91.58,265.07l0 458.65 -232.3 0 0 -422.91c0,-63.54 -13.93,-110.96 -41.7,-142.21 -27.77,-31.25 -68,-46.91 -120.62,-46.91 -58.57,0 -105.24,18.12 -139.98,54.35 -34.75,36.23 -52.12,90.15 -52.12,161.57l0 396.11 -232.31 0 0 -801.15 221.88 0 0 93.81c30.78,-33.75 69.02,-59.84 114.66,-78.18 45.64,-18.34 95.8,-27.55 150.4,-27.55zm1226.82 -291.86l0 1104.93 -221.87 0 0 -92.33c-57.58,69.49 -140.97,104.24 -250.17,104.24 -75.45,0 -143.74,-16.91 -204.76,-50.63 -61.02,-33.72 -108.99,-81.94 -143.7,-144.45 -34.71,-62.51 -52.12,-135.02 -52.12,-217.41 0,-82.4 17.41,-154.91 52.12,-217.41 34.71,-62.51 82.68,-110.73 143.7,-144.45 61.02,-33.72 129.3,-50.63 204.76,-50.63 102.25,0 182.17,32.27 239.75,96.8l0 -388.66 232.3 0zm-431.85 926.23c58.57,0 107.25,-20.14 145.94,-60.31 38.68,-40.17 58.07,-94.06 58.07,-161.56 0,-67.51 -19.39,-121.4 -58.07,-161.57 -38.68,-40.17 -87.37,-60.31 -145.94,-60.31 -59.56,0 -108.71,20.11 -147.42,60.31 -38.72,40.2 -58.08,94.07 -58.08,161.57 0,67.5 19.39,121.4 58.08,161.56 38.68,40.17 87.86,60.31 147.42,60.31zm830.28 -634.37c124.09,0 219.4,29.54 285.91,88.61 66.52,59.07 99.77,148.26 99.77,267.3l0 457.16 -217.41 0 0 -99.77c-43.68,74.46 -125.09,111.69 -244.22,111.69 -61.55,0 -114.91,-10.42 -160.08,-31.27 -45.17,-20.85 -79.72,-49.68 -103.5,-86.37 -23.78,-36.68 -35.74,-78.43 -35.74,-125.09 0,-74.46 28.04,-133.03 84.13,-175.72 56.09,-42.69 142.71,-64.03 259.85,-64.03l184.65 0c0,-50.63 -15.39,-89.6 -46.16,-116.9 -30.77,-27.3 -76.93,-40.95 -138.49,-40.95 -42.69,0 -84.68,6.75 -125.83,20.1 -41.15,13.36 -76.2,31.52 -104.98,54.35l-83.39 -162.31c43.68,-30.78 96.06,-54.6 157.1,-71.48 61.05,-16.88 123.85,-25.32 188.38,-25.32zm-17.87 668.62c39.71,0 75,-9.23 105.74,-27.55 30.72,-18.32 52.61,-45.42 65.51,-81.15l0 -81.9 -159.34 0c-95.2,0 -142.95,31.27 -142.95,93.82 0,29.78 11.71,53.41 34.99,70.73 23.28,17.32 55.35,26.06 96.05,26.06zm914.63 -668.62c99.28,0 179.51,29.86 240.49,89.35 60.99,59.5 91.58,148.06 91.58,265.07l0 458.65 -232.3 0 0 -422.91c0,-63.54 -13.96,-111.01 -41.7,-142.21 -27.72,-31.2 -68,-46.91 -120.62,-46.91 -58.57,0 -105.24,18.12 -139.98,54.35 -34.75,36.23 -52.12,90.23 -52.12,161.57l0 396.11 -232.31 0 0 -801.15 221.88 0 0 93.81c30.78,-33.75 69.07,-59.88 114.66,-78.18 45.6,-18.29 95.8,-27.55 150.4,-27.55zm700.19 498.86l-111.69 110.2 0 204.01 -232.31 0 0 -1104.93 232.31 0 0 625.43 339.52 -321.65 276.98 0 -333.56 339.52 363.35 461.63 -281.45 0 -253.15 -314.21zm1498.72 314.21l-1.49 -625.43 -306.76 515.23 -108.7 0 -305.27 -501.84 0 612.03 -226.35 0 0 -1042.39 199.54 0 390.15 647.77 384.2 -647.77 198.05 0 2.98 1042.39 -226.35 0zm691.31 11.91c-84.38,0 -160.21,-17.74 -227.09,-52.86 -66.89,-35.12 -119.5,-84.26 -157.1,-146.68 -37.6,-62.42 -56.59,-133.52 -56.59,-212.94 0,-79.42 18.98,-150.52 56.59,-212.95 37.6,-62.42 90.21,-111.56 157.1,-146.68 66.88,-35.12 142.71,-52.87 227.09,-52.87 84.38,0 159.83,17.63 226.35,52.87 66.52,35.24 118.64,84.14 156.36,146.68 37.72,62.54 56.59,133.53 56.59,212.95 0,79.42 -18.98,150.52 -56.59,212.94 -37.6,62.43 -89.84,111.44 -156.36,146.68 -66.52,35.24 -141.96,52.86 -226.35,52.86zm0 -190.61c59.56,0 108.46,-20.11 146.68,-60.31 38.22,-40.2 57.33,-94.06 57.33,-161.56 0,-67.51 -19.23,-121.48 -57.33,-161.57 -38.1,-40.08 -87.11,-60.31 -146.68,-60.31 -59.56,0 -108.83,20.22 -147.42,60.31 -38.6,40.09 -58.08,94.07 -58.08,161.57 0,67.5 19.49,121.48 58.08,161.56 38.6,40.09 87.86,60.31 147.42,60.31zm1327.66 -926.23l9.58 1104.93 -221.88 0 0 -92.33c-57.58,69.49 -140.97,104.24 -250.17,104.24 -75.45,0 -143.84,-17.01 -204.76,-50.63 -60.91,-33.61 -109.1,-82.05 -143.7,-144.45 -34.6,-62.4 -52.12,-135.02 -52.12,-217.41 0,-82.4 17.52,-155.01 52.12,-217.41 34.6,-62.4 82.79,-110.84 143.7,-144.45 60.91,-33.61 129.31,-50.63 204.76,-50.63 102.26,0 182.17,32.27 239.75,96.8l-9.58 -388.66 232.3 0zm-422.26 926.23c58.57,0 107.36,-20.25 145.93,-60.31 38.57,-40.06 58.08,-94.06 58.08,-161.56 0,-67.51 -19.5,-121.51 -58.08,-161.57 -38.57,-40.06 -87.36,-60.31 -145.93,-60.31 -59.57,0 -108.71,20.11 -147.43,60.31 -38.71,40.2 -58.07,94.07 -58.07,161.57 0,67.5 19.5,121.51 58.07,161.56 38.58,40.07 87.86,60.31 147.43,60.31z"/>
  <path class="fil1" d="M1018.5 0c232.97,0 447.63,78.28 619.24,209.89l-1160.01 1160 0 -1214.56c156.7,-98.4 342.08,-155.34 540.77,-155.34zm-808.61 1637.74c-131.62,-171.6 -209.89,-386.26 -209.89,-619.24 0,-232.97 78.28,-447.63 209.89,-619.24l0 1238.47zm1617.22 -1238.47c131.63,171.59 209.89,386.26 209.89,619.24 0,232.97 -78.28,447.63 -209.89,619.24l-619.24 -619.24 619.24 -619.23zm-808.61 808.6l619.24 619.24c-171.59,131.63 -386.26,209.89 -619.24,209.89 -232.98,0 -447.65,-78.27 -619.24,-209.89l619.24 -619.24z"/>
 </g>
</svg>
