<?xml version="1.0" encoding="UTF-8"?>
<!DOCTYPE svg PUBLIC "-//W3C//DTD SVG 1.1//EN" "http://www.w3.org/Graphics/SVG/1.1/DTD/svg11.dtd">
<!-- Creator: CorelDRAW 2021 (64-Bit) -->
<svg xmlns="http://www.w3.org/2000/svg" xml:space="preserve" width="1.8627mm" height="1.8626mm" version="1.1" style="shape-rendering:geometricPrecision; text-rendering:geometricPrecision; image-rendering:optimizeQuality; fill-rule:evenodd; clip-rule:evenodd"
viewBox="0 0 0.75 0.75"
 xmlns:xlink="http://www.w3.org/1999/xlink"
 xmlns:xodm="http://www.corel.com/coreldraw/odm/2003">
 <defs>
  <style type="text/css">
   <![CDATA[
    .fil0 {fill:#CC095D}
   ]]>
  </style>
 </defs>
 <g id="Layer_x0020_1">
  <metadata id="CorelCorpID_0Corel-Layer"/>
  <path class="fil0" d="M0.38 0c0.09,0 0.17,0.03 0.23,0.08l-0.43 0.43 0 -0.45c0.06,-0.04 0.13,-0.06 0.2,-0.06zm-0.3 0.61c-0.05,-0.06 -0.08,-0.14 -0.08,-0.23 0,-0.09 0.03,-0.17 0.08,-0.23l0 0.46zm0.6 -0.46c0.05,0.06 0.08,0.14 0.08,0.23 0,0.09 -0.03,0.17 -0.08,0.23l-0.23 -0.23 0.23 -0.23zm-0.3 0.3l0.23 0.23c-0.06,0.05 -0.14,0.08 -0.23,0.08 -0.09,0 -0.17,-0.03 -0.23,-0.08l0.23 -0.23z"/>
 </g>
</svg>
